<svg xmlns="http://www.w3.org/2000/svg" xmlns:xlink="http://www.w3.org/1999/xlink" width="500" zoomAndPan="magnify" viewBox="0 0 375 374.999991" height="500" preserveAspectRatio="xMidYMid meet" version="1.0"><defs><filter x="0%" y="0%" width="100%" height="100%" id="1b36c18e79"><feColorMatrix values="0 0 0 0 1 0 0 0 0 1 0 0 0 0 1 0 0 0 1 0" color-interpolation-filters="sRGB"/></filter><mask id="0189aa2042"><g filter="url(#1b36c18e79)"><rect x="-37.5" width="450" fill="#000000" y="-37.499999" height="449.999989" fill-opacity="0.3"/></g></mask><clipPath id="3942ac3c6a"><path d="M 1.125 0.585938 L 168.769531 0.585938 L 168.769531 168.230469 L 1.125 168.230469 Z M 1.125 0.585938 " clip-rule="nonzero"/></clipPath><clipPath id="c257ce6960"><path d="M 84.949219 0.585938 C 38.652344 0.585938 1.125 38.113281 1.125 84.40625 C 1.125 130.703125 38.652344 168.230469 84.949219 168.230469 C 131.242188 168.230469 168.769531 130.703125 168.769531 84.40625 C 168.769531 38.113281 131.242188 0.585938 84.949219 0.585938 Z M 84.949219 0.585938 " clip-rule="nonzero"/></clipPath><clipPath id="73465044f8"><rect x="0" width="169" y="0" height="169"/></clipPath><mask id="6760551cc9"><g filter="url(#1b36c18e79)"><rect x="-37.5" width="450" fill="#000000" y="-37.499999" height="449.999989" fill-opacity="0.3"/></g></mask><clipPath id="076801c412"><path d="M 0.8125 0.691406 L 168.460938 0.691406 L 168.460938 168.335938 L 0.8125 168.335938 Z M 0.8125 0.691406 " clip-rule="nonzero"/></clipPath><clipPath id="ab91fa7f11"><path d="M 84.636719 0.691406 C 38.34375 0.691406 0.8125 38.21875 0.8125 84.511719 C 0.8125 130.808594 38.34375 168.335938 84.636719 168.335938 C 130.929688 168.335938 168.460938 130.808594 168.460938 84.511719 C 168.460938 38.21875 130.929688 0.691406 84.636719 0.691406 Z M 84.636719 0.691406 " clip-rule="nonzero"/></clipPath><clipPath id="0973b3c756"><rect x="0" width="169" y="0" height="169"/></clipPath><mask id="bc409cd86c"><g filter="url(#1b36c18e79)"><rect x="-37.5" width="450" fill="#000000" y="-37.499999" height="449.999989" fill-opacity="0.3"/></g></mask><clipPath id="d7278acdc2"><path d="M 0.539062 0.691406 L 168.1875 0.691406 L 168.1875 168.335938 L 0.539062 168.335938 Z M 0.539062 0.691406 " clip-rule="nonzero"/></clipPath><clipPath id="7c26383e0d"><path d="M 84.363281 0.691406 C 38.070312 0.691406 0.539062 38.21875 0.539062 84.511719 C 0.539062 130.808594 38.070312 168.335938 84.363281 168.335938 C 130.65625 168.335938 168.1875 130.808594 168.1875 84.511719 C 168.1875 38.21875 130.65625 0.691406 84.363281 0.691406 Z M 84.363281 0.691406 " clip-rule="nonzero"/></clipPath><clipPath id="af06857b0e"><rect x="0" width="169" y="0" height="169"/></clipPath><clipPath id="55103d4bef"><path d="M 104.125 30.949219 L 271.769531 30.949219 L 271.769531 198.59375 L 104.125 198.59375 Z M 104.125 30.949219 " clip-rule="nonzero"/></clipPath><clipPath id="8ed7048049"><path d="M 187.949219 30.949219 C 141.652344 30.949219 104.125 68.476562 104.125 114.769531 C 104.125 161.0625 141.652344 198.59375 187.949219 198.59375 C 234.242188 198.59375 271.769531 161.0625 271.769531 114.769531 C 271.769531 68.476562 234.242188 30.949219 187.949219 30.949219 Z M 187.949219 30.949219 " clip-rule="nonzero"/></clipPath><clipPath id="944874d28d"><path d="M 191.488281 180.691406 L 359.132812 180.691406 L 359.132812 348.335938 L 191.488281 348.335938 Z M 191.488281 180.691406 " clip-rule="nonzero"/></clipPath><clipPath id="473c592736"><path d="M 275.308594 180.691406 C 229.015625 180.691406 191.488281 218.21875 191.488281 264.511719 C 191.488281 310.808594 229.015625 348.335938 275.308594 348.335938 C 321.605469 348.335938 359.132812 310.808594 359.132812 264.511719 C 359.132812 218.21875 321.605469 180.691406 275.308594 180.691406 Z M 275.308594 180.691406 " clip-rule="nonzero"/></clipPath><clipPath id="92e0887c7b"><path d="M 16.761719 180.691406 L 184.410156 180.691406 L 184.410156 348.335938 L 16.761719 348.335938 Z M 16.761719 180.691406 " clip-rule="nonzero"/></clipPath><clipPath id="dbeae2bd24"><path d="M 100.585938 180.691406 C 54.292969 180.691406 16.761719 218.21875 16.761719 264.511719 C 16.761719 310.808594 54.292969 348.335938 100.585938 348.335938 C 146.878906 348.335938 184.410156 310.808594 184.410156 264.511719 C 184.410156 218.21875 146.878906 180.691406 100.585938 180.691406 Z M 100.585938 180.691406 " clip-rule="nonzero"/></clipPath></defs><g mask="url(#0189aa2042)"><g transform="matrix(1, 0, 0, 1, 103, 16)"><g clip-path="url(#73465044f8)"><g clip-path="url(#3942ac3c6a)"><g clip-path="url(#c257ce6960)"><path fill="#00ff00" d="M 1.125 0.585938 L 168.769531 0.585938 L 168.769531 168.230469 L 1.125 168.230469 Z M 1.125 0.585938 " fill-opacity="1" fill-rule="nonzero"/></g></g></g></g></g><g mask="url(#6760551cc9)"><g transform="matrix(1, 0, 0, 1, 205, 180)"><g clip-path="url(#0973b3c756)"><g clip-path="url(#076801c412)"><g clip-path="url(#ab91fa7f11)"><path fill="#00ff00" d="M 0.8125 0.691406 L 168.460938 0.691406 L 168.460938 168.335938 L 0.8125 168.335938 Z M 0.8125 0.691406 " fill-opacity="1" fill-rule="nonzero"/></g></g></g></g></g><g mask="url(#bc409cd86c)"><g transform="matrix(1, 0, 0, 1, 1, 180)"><g clip-path="url(#af06857b0e)"><g clip-path="url(#d7278acdc2)"><g clip-path="url(#7c26383e0d)"><path fill="#00ff00" d="M 0.539062 0.691406 L 168.1875 0.691406 L 168.1875 168.335938 L 0.539062 168.335938 Z M 0.539062 0.691406 " fill-opacity="1" fill-rule="nonzero"/></g></g></g></g></g><g clip-path="url(#55103d4bef)"><g clip-path="url(#8ed7048049)"><path fill="#569cd6" d="M 104.125 30.949219 L 271.769531 30.949219 L 271.769531 198.59375 L 104.125 198.59375 Z M 104.125 30.949219 " fill-opacity="1" fill-rule="nonzero"/></g></g><g clip-path="url(#944874d28d)"><g clip-path="url(#473c592736)"><path fill="#569cd6" d="M 191.488281 180.691406 L 359.132812 180.691406 L 359.132812 348.335938 L 191.488281 348.335938 Z M 191.488281 180.691406 " fill-opacity="1" fill-rule="nonzero"/></g></g><g clip-path="url(#92e0887c7b)"><g clip-path="url(#dbeae2bd24)"><path fill="#569cd6" d="M 16.761719 180.691406 L 184.410156 180.691406 L 184.410156 348.335938 L 16.761719 348.335938 Z M 16.761719 180.691406 " fill-opacity="1" fill-rule="nonzero"/></g></g></svg>